HIERARCHY
ROOT Hips
{
	OFFSET -0.001795 -0.223333 0.028219
	CHANNELS 6 Xposition Yposition Zposition Zrotation Yrotation Xrotation 
	JOINT LeftUpLeg
	{
		OFFSET 0.069520 -0.091406 -0.006815
		CHANNELS 3 Zrotation Yrotation Xrotation
		JOINT LeftLeg
		{
			OFFSET 0.034277 -0.375199 -0.004496
			CHANNELS 3 Zrotation Yrotation Xrotation
			JOINT LeftFoot
			{
				OFFSET -0.013596 -0.397961 -0.043693
				CHANNELS 3 Zrotation Yrotation Xrotation
				JOINT LeftToe
				{
					OFFSET 0.026358 -0.055791 0.119288
					CHANNELS 3 Zrotation Yrotation Xrotation
					End Site
					{
						OFFSET 0.000000 0.000000 0.000000
					}
				}
			}
		}
	}
	JOINT RightUpLeg
	{
		OFFSET -0.067670 -0.090522 -0.004320
		CHANNELS 3 Zrotation Yrotation Xrotation
		JOINT RightLeg
		{
			OFFSET -0.038290 -0.382569 -0.008850
			CHANNELS 3 Zrotation Yrotation Xrotation
			JOINT RightFoot
			{
				OFFSET 0.015774 -0.398415 -0.042312
				CHANNELS 3 Zrotation Yrotation Xrotation
				JOINT RightToe
				{
					OFFSET -0.025372 -0.048144 0.123348
					CHANNELS 3 Zrotation Yrotation Xrotation
					End Site
					{
						OFFSET 0.000000 0.000000 0.000000
					}
				}
			}
		}
	}
	JOINT Spine
	{
		OFFSET -0.002533 0.108963 -0.026696
		CHANNELS 3 Zrotation Yrotation Xrotation
		JOINT Spine1
		{
			OFFSET 0.005487 0.135180 0.001092
			CHANNELS 3 Zrotation Yrotation Xrotation
			JOINT Spine2
			{
				OFFSET 0.001457 0.052922 0.025425
				CHANNELS 3 Zrotation Yrotation Xrotation
				JOINT Neck
				{
					OFFSET -0.002778 0.213870 -0.042857
					CHANNELS 3 Zrotation Yrotation Xrotation
					JOINT Head
					{
						OFFSET 0.005152 0.064970 0.051349
						CHANNELS 3 Zrotation Yrotation Xrotation
						End Site
						{
							OFFSET 0.000000 0.000000 0.000000
						}
					}
				}
				JOINT LeftShoulder
				{
					OFFSET 0.078845 0.121749 -0.034090
					CHANNELS 3 Zrotation Yrotation Xrotation
					JOINT LeftArm
					{
						OFFSET 0.090977 0.030469 -0.008868
						CHANNELS 3 Zrotation Yrotation Xrotation
						JOINT LeftForeArm
						{
							OFFSET 0.259612 -0.012772 -0.027456
							CHANNELS 3 Zrotation Yrotation Xrotation
							JOINT LeftHand
							{
								OFFSET 0.249234 0.008986 -0.001171
								CHANNELS 3 Zrotation Yrotation Xrotation
								End Site
								{
									OFFSET 0.000000 0.000000 0.000000
								}
							}
						}
					}
				}
				JOINT RightShoulder
				{
					OFFSET -0.081759 0.118833 -0.038615
					CHANNELS 3 Zrotation Yrotation Xrotation
					JOINT RightArm
					{
						OFFSET -0.096012 0.032551 -0.009143
						CHANNELS 3 Zrotation Yrotation Xrotation
						JOINT RightForeArm
						{
							OFFSET -0.253742 -0.013329 -0.021401
							CHANNELS 3 Zrotation Yrotation Xrotation
							JOINT RightHand
							{
								OFFSET -0.255298 0.007772 -0.005559
								CHANNELS 3 Zrotation Yrotation Xrotation
								End Site
								{
									OFFSET 0.000000 0.000000 0.000000
								}
							}
						}
					}
				}
			}
		}
	}
}
MOTION
Frames: 5
Frame Time: 0.050000
0.000367 0.906933 -0.036092 -0.068813 -13.053849 3.282616 3.826803 -0.644695 -23.812881 2.821805 1.580595 -23.361171 111.236512 11.287278 140.561648 0.000000 0.000000 0.000000 -0.443182 2.672420 -22.218149 0.949202 0.821485 15.625602 -2.759999 -3.501706 -5.431734 0.000000 0.000000 0.000000 -3.954633 1.660326 37.720187 7.737034 -1.880170 -19.997860 1.094693 3.626204 26.595745 1.673463 0.591624 -31.923727 0.000000 0.000000 0.000000 -43.387366 -11.421172 8.089848 -58.551766 -15.889171 -2.109899 20.777499 -50.611962 -5.373416 0.000000 0.000000 0.000000 35.259302 21.177032 11.644298 52.660432 8.044177 -3.309843 -27.464960 51.805819 -10.388687 0.000000 0.000000 0.000000 
0.011009 0.905653 -0.036789 -0.128489 -13.886624 3.639451 3.784471 -0.597487 -24.146149 2.623838 1.617623 -23.573910 111.976463 10.547821 141.260421 0.000000 0.000000 0.000000 -1.590319 2.849085 -24.280737 1.964619 0.804355 18.007159 -2.655029 -3.271672 -5.308564 0.000000 0.000000 0.000000 -4.293671 1.989277 38.515915 7.847251 -1.977551 -19.404689 1.433254 3.186411 26.556240 1.507214 0.444315 -30.240764 0.000000 0.000000 0.000000 -41.942601 -11.919302 8.879651 -59.303925 -18.846219 -0.688516 22.418025 -49.650272 -5.804177 0.000000 0.000000 0.000000 35.160030 22.372270 12.174852 53.540408 9.039271 -2.785269 -30.591421 52.165532 -12.059512 0.000000 0.000000 0.000000 
0.020809 0.903792 -0.038454 0.014302 -14.218776 4.306670 3.531727 -0.628297 -25.021537 2.207647 1.612680 -23.740443 112.363594 10.024133 141.655903 0.000000 0.000000 0.000000 -2.978663 2.933750 -26.238851 2.983681 0.676346 19.454539 -2.632918 -3.418368 -5.073326 0.000000 0.000000 0.000000 -4.307867 2.132427 39.266970 8.396315 -2.174498 -18.804189 1.309667 3.175305 26.052515 1.306134 0.506648 -29.415125 0.000000 0.000000 0.000000 -41.297695 -13.233722 9.943813 -59.023960 -21.037744 0.510568 23.393262 -48.587458 -6.138179 0.000000 0.000000 0.000000 34.899987 23.030661 12.616096 55.002279 10.424632 -2.131055 -34.366031 52.636827 -14.018824 0.000000 0.000000 0.000000 
0.029774 0.900288 -0.041431 -0.101640 -15.077214 4.906882 3.432373 -0.567574 -26.518324 2.500868 1.546496 -22.757746 113.371697 9.249801 142.221247 0.000000 0.000000 0.000000 -4.391930 3.120723 -28.827572 4.784910 0.420155 21.893659 -2.595108 -3.452920 -4.919687 0.000000 0.000000 0.000000 -4.180909 2.353357 40.525196 8.463267 -2.242238 -18.396591 1.914103 3.203855 25.573765 1.197778 0.454225 -28.006370 0.000000 0.000000 0.000000 -40.576248 -14.352754 10.905530 -58.879658 -23.329766 1.741393 24.811871 -47.503559 -6.585438 0.000000 0.000000 0.000000 34.921868 24.541336 13.660464 55.679443 12.487081 -1.073135 -38.150792 52.326576 -15.812947 0.000000 0.000000 0.000000 
0.037516 0.895001 -0.045353 -0.154188 -15.633166 5.754798 3.193835 -0.546594 -28.045094 2.815659 1.540423 -22.396212 115.415570 8.673785 142.173785 0.000000 0.000000 0.000000 -5.995924 3.216976 -31.265639 6.823838 -0.014107 23.460702 -2.683656 -3.781962 -4.909906 0.000000 0.000000 0.000000 -4.032523 2.562067 41.983885 9.473977 -2.587729 -17.647063 1.856825 3.972287 24.455473 0.836964 0.761977 -27.377098 0.000000 0.000000 0.000000 -40.539219 -15.804338 11.630567 -58.089132 -24.896631 2.753482 26.793904 -46.619006 -7.489318 0.000000 0.000000 0.000000 35.029874 25.994565 15.142835 55.807719 14.812397 0.068779 -40.885824 51.158136 -16.625931 0.000000 0.000000 0.000000 
